<?xml version="1.0" standalone="no"?>
<!DOCTYPE svg PUBLIC "-//W3C//DTD SVG 20010904//EN"
 "http://www.w3.org/TR/2001/REC-SVG-20010904/DTD/svg10.dtd">
<svg version="1.0" xmlns="http://www.w3.org/2000/svg"
 width="214.000000pt" height="100.000000pt" viewBox="0 0 214.000000 100.000000"
 preserveAspectRatio="xMidYMid meet">

<g transform="translate(0.000000,100.000000) scale(0.100000,-0.100000)"
fill="#000000" stroke="none">
<path d="M460 771 c18 -23 36 -39 38 -36 3 3 11 -4 19 -15 21 -30 33 -24 20 9
-6 17 -15 28 -19 25 -4 -3 -8 1 -8 8 0 10 -2 10 -9 -1 -7 -11 -11 -9 -20 7 -6
12 -21 27 -33 33 -16 9 -13 2 12 -30z"/>
<path d="M330 775 c18 -9 29 -10 37 -3 9 7 13 7 13 0 0 -6 7 -9 16 -5 9 3 20
0 25 -8 6 -10 11 -11 19 -3 8 8 -1 14 -34 23 -25 6 -57 11 -73 11 l-28 -1 25
-14z"/>
<path d="M360 750 c0 -5 7 -10 16 -10 8 0 12 5 9 10 -3 6 -10 10 -16 10 -5 0
-9 -4 -9 -10z"/>
<path d="M288 743 c23 -2 42 -8 42 -14 0 -5 8 -9 18 -8 10 0 12 3 4 6 -6 2
-10 9 -6 14 3 5 -18 8 -48 7 -50 -1 -51 -2 -10 -5z"/>
<path d="M235 706 c-40 -18 -69 -51 -61 -71 3 -9 2 -13 -4 -10 -6 3 -10 -3
-10 -15 l0 -21 22 21 c26 24 37 25 44 5 4 -8 10 -15 15 -15 12 0 11 37 -1 45
-5 3 -10 2 -10 -3 0 -6 -9 -8 -20 -5 -11 3 -20 10 -20 15 0 17 30 39 42 32 7
-4 10 -3 5 1 -4 5 5 14 20 21 16 7 24 13 18 13 -5 0 -23 -6 -40 -13z"/>
<path d="M411 713 c-1 -7 -8 -13 -16 -13 -7 0 -18 -7 -23 -15 -4 -9 -19 -17
-31 -20 -26 -5 -41 -15 -23 -15 7 0 9 -11 6 -30 -4 -19 -2 -30 5 -30 6 0 11
10 11 23 0 30 37 65 78 73 32 7 41 -3 21 -23 -8 -8 -3 -15 19 -27 42 -22 69
-20 77 4 4 11 11 18 16 15 5 -4 5 -13 0 -23 -7 -14 -2 -20 30 -34 37 -15 39
-15 39 1 0 25 -29 61 -49 61 -10 0 -33 15 -51 33 -18 17 -30 26 -26 20 8 -15
-10 -18 -19 -4 -3 6 -14 9 -25 8 -10 -1 -16 -5 -14 -9 3 -4 1 -8 -5 -8 -5 0
-12 6 -14 13 -4 10 -6 10 -6 0z m89 -18 c5 3 10 -1 10 -9 0 -9 5 -16 11 -16 8
0 9 -4 0 -13 -6 -8 -8 -17 -4 -20 3 -4 -3 -7 -15 -7 -12 0 -22 5 -22 10 0 6
-5 9 -11 8 -6 -2 -14 3 -17 11 -3 10 0 12 12 8 9 -4 16 -2 16 3 0 6 -4 10 -8
10 -5 0 -9 7 -9 15 0 11 4 12 13 4 7 -6 18 -8 24 -4z m107 -91 c-10 -10 -48
27 -41 38 4 6 16 1 27 -11 12 -11 18 -24 14 -27z"/>
<path d="M340 679 c0 -5 5 -7 10 -4 6 3 10 8 10 11 0 2 -4 4 -10 4 -5 0 -10
-5 -10 -11z"/>
<path d="M260 620 c0 -11 5 -20 10 -20 6 0 10 9 10 20 0 11 -4 20 -10 20 -5 0
-10 -9 -10 -20z"/>
<path d="M190 588 c-12 -20 -19 -49 -18 -80 l0 -48 22 42 c23 45 23 78 0 37
-13 -24 -13 -24 -14 -2 0 12 6 28 13 35 14 14 29 48 22 48 -3 0 -14 -14 -25
-32z"/>
<path d="M310 570 l-35 -7 43 -2 c27 0 41 3 37 9 -3 6 -7 9 -8 9 -1 -1 -18 -5
-37 -9z"/>
<path d="M235 540 c3 -14 8 -47 12 -73 7 -57 23 -44 22 18 0 22 -3 33 -6 25
-4 -10 -11 -4 -20 20 -7 19 -11 24 -8 10z"/>
<path d="M256 551 c-4 -7 -5 -15 -2 -18 9 -9 19 4 14 18 -4 11 -6 11 -12 0z"/>
<path d="M415 451 c0 -41 4 -69 10 -68 6 1 9 -4 8 -10 -2 -7 9 -15 25 -19 15
-3 34 -8 43 -10 9 -3 24 2 32 11 12 11 17 12 21 2 3 -6 4 1 1 16 -5 25 -3 28
15 22 15 -5 20 -2 20 12 0 15 -2 16 -11 3 -8 -12 -9 -10 -7 10 3 24 5 25 76
22 50 -2 72 0 67 7 -8 14 18 14 32 0 8 -8 31 -14 75 -18 4 -1 8 -22 10 -48 l3
-48 56 -5 c41 -4 56 -2 56 8 0 8 -18 12 -54 12 l-54 0 7 35 c8 44 -8 65 -48
65 -39 0 -67 16 -78 46 -9 23 -14 24 -89 24 -67 0 -79 -2 -75 -15 4 -8 12 -15
20 -15 8 0 14 -5 14 -11 0 -5 -4 -7 -10 -4 -5 3 -10 -2 -10 -13 0 -11 -11 -35
-24 -55 -13 -19 -23 -37 -21 -39 2 -2 -14 -4 -36 -6 l-39 -2 0 80 c0 70 -2 80
-17 80 -15 0 -18 -10 -18 -69z m22 22 c-3 -10 -5 -4 -5 12 0 17 2 24 5 18 2
-7 2 -21 0 -30z m229 22 c-18 -19 -45 -19 -70 0 -18 14 -16 15 33 15 47 0 51
-2 37 -15z m44 -6 c0 -6 -4 -7 -10 -4 -5 3 -10 11 -10 16 0 6 5 7 10 4 6 -3
10 -11 10 -16z m-273 -81 c-3 -7 -5 -2 -5 12 0 14 2 19 5 13 2 -7 2 -19 0 -25z"/>
<path d="M1055 487 c-17 -26 -27 -33 -62 -35 -23 -2 -47 -9 -53 -17 -13 -16
-4 -79 10 -70 5 3 7 12 3 20 -3 11 2 15 18 15 40 0 69 12 69 26 0 8 8 14 18
14 10 0 24 9 32 20 14 20 67 29 55 10 -3 -5 -1 -10 5 -10 6 0 8 -5 4 -12 -5
-7 -3 -8 5 -4 7 5 10 15 7 25 -4 9 3 5 14 -9 l20 -25 -10 29 c-6 16 -9 35 -6
43 4 10 -8 13 -52 13 -53 -1 -58 -3 -77 -33z m107 15 c-7 -5 -28 -8 -47 -7
-31 1 -51 -15 -47 -36 1 -4 -7 -9 -18 -12 -16 -4 -15 0 8 29 24 30 33 34 72
34 27 0 40 -4 32 -8z"/>
<path d="M1387 513 l32 -4 -13 -37 c-8 -21 -20 -37 -28 -36 -8 1 -20 -7 -26
-16 -9 -15 -8 -17 8 -13 28 7 59 45 66 81 6 32 6 32 -32 30 -36 -1 -37 -1 -7
-5z"/>
<path d="M1450 498 c0 -33 -35 -85 -70 -107 -24 -14 -27 -20 -16 -24 30 -12
96 75 96 126 0 18 2 19 10 7 6 -10 10 -11 10 -2 0 8 18 12 58 12 l59 0 1 -47
c1 -43 6 -52 46 -89 42 -39 48 -41 86 -34 57 10 61 19 6 13 -77 -9 -132 48
-124 128 l4 39 -83 0 c-79 0 -83 -1 -83 -22z"/>
<path d="M1341 493 c0 -5 5 -17 10 -28 9 -19 9 -19 5 2 -2 12 1 24 8 27 6 2 3
5 -6 5 -10 1 -18 -2 -17 -6z"/>
<path d="M291 347 c-1 -94 0 -98 17 -81 21 22 24 120 4 133 -8 5 -13 11 -12
15 1 4 -1 12 -3 19 -3 6 -6 -32 -6 -86z m21 -16 c0 -23 -2 -45 -6 -48 -3 -4
-6 18 -6 47 0 29 3 51 6 48 3 -3 5 -25 6 -47z"/>
<path d="M1239 391 c20 -19 30 -31 24 -27 -16 9 -40 -4 -25 -13 5 -3 7 -31 4
-63 l-4 -57 -42 -4 -41 -4 47 -1 47 -2 3 53 3 52 5 -58 5 -57 -71 0 -70 0 2
30 c1 17 -2 30 -7 30 -5 0 -9 -16 -9 -35 l0 -35 85 0 85 0 0 60 c0 60 14 88
51 103 8 3 1 6 -14 6 -30 1 -59 14 -93 40 -11 9 -4 1 15 -18z"/>
<path d="M1810 386 c-22 -25 -22 -25 -1 -23 19 1 25 9 22 30 -3 21 33 -1 42
-25 4 -12 17 -18 37 -18 23 0 30 -4 30 -19 0 -31 19 -35 32 -6 14 32 -2 47
-42 39 -16 -4 -21 -2 -12 3 9 7 2 14 -23 26 -47 22 -57 22 -85 -7z m85 -5 c3
-5 2 -12 -3 -15 -5 -3 -9 1 -9 9 0 17 3 19 12 6z"/>
<path d="M1459 382 c-15 -6 -15 -8 0 -24 15 -15 16 -14 16 8 0 13 0 24 0 23 0
0 -7 -3 -16 -7z"/>
<path d="M1440 348 c0 -9 5 -20 10 -23 13 -8 13 5 0 25 -8 13 -10 13 -10 -2z"/>
<path d="M354 295 c-21 -30 -45 -55 -51 -55 -7 0 -13 -9 -13 -20 0 -19 7 -20
98 -20 93 0 172 13 172 28 0 14 -49 10 -54 -5 -5 -11 -24 -13 -103 -9 -54 3
-100 6 -103 6 -3 0 10 9 28 20 17 11 32 27 32 35 0 8 6 15 14 15 8 0 18 5 22
12 4 7 3 8 -4 4 -16 -9 -15 7 0 22 6 6 9 14 7 17 -3 2 -23 -20 -45 -50z"/>
<path d="M1313 333 c-7 -3 3 -28 29 -69 l40 -64 85 0 c67 0 83 3 76 13 -57 75
-54 72 -50 47 2 -13 9 -26 15 -28 7 -2 12 -8 12 -13 0 -10 -119 -10 -135 0 -5
3 8 9 30 13 l40 6 -42 -2 c-29 -1 -43 3 -43 11 0 7 5 13 10 13 6 0 10 5 10 11
0 6 -9 9 -20 6 -11 -3 -18 -1 -14 4 3 5 -2 9 -10 9 -9 0 -16 5 -16 10 0 6 7
10 16 10 8 0 12 5 9 10 -4 6 -10 8 -15 5 -4 -3 -10 -1 -12 3 -1 5 -8 7 -15 5z"/>
<path d="M646 306 c6 -15 -40 -56 -62 -56 -8 0 -14 -4 -14 -10 0 -17 15 -12
58 19 l40 30 19 -21 c24 -27 102 -72 111 -64 3 4 -4 9 -17 13 -17 4 -20 8 -9
15 9 6 6 7 -9 3 -14 -4 -23 -2 -23 4 0 6 -7 11 -15 11 -8 0 -14 3 -13 8 3 9
-45 56 -60 59 -6 2 -9 -3 -6 -11z"/>
<path d="M880 310 c0 -5 -9 -10 -20 -10 -11 0 -20 -4 -20 -10 0 -5 13 -10 29
-10 20 0 30 6 34 20 3 13 0 20 -9 20 -8 0 -14 -4 -14 -10z"/>
<path d="M1504 305 c4 -25 58 -76 101 -96 63 -28 134 -34 198 -15 87 25 172
99 130 113 -7 3 -9 -4 -6 -18 5 -18 3 -21 -11 -16 -10 4 -15 3 -11 -3 7 -11
-31 -33 -63 -36 -13 -2 -29 -10 -35 -18 -11 -14 -61 -20 -134 -17 -18 0 -42
10 -53 21 -11 11 -23 19 -27 18 -17 -3 -42 15 -36 26 3 6 2 8 -2 3 -12 -10
-45 22 -38 39 3 8 1 14 -5 14 -6 0 -9 -7 -8 -15z"/>
<path d="M1738 313 c7 -3 16 -2 19 1 4 3 -2 6 -13 5 -11 0 -14 -3 -6 -6z"/>
<path d="M1080 270 c0 -5 -3 -9 -7 -7 -5 1 -10 -2 -13 -8 -8 -18 -74 -48 -78
-36 -5 16 -22 13 -22 -4 0 -15 -27 -18 -125 -17 -23 1 -20 -2 15 -10 76 -17
184 16 235 72 10 11 13 20 7 20 -7 0 -12 -4 -12 -10z"/>
<path d="M1570 266 c0 -2 7 -6 15 -10 8 -3 15 -1 15 4 0 6 -7 10 -15 10 -8 0
-15 -2 -15 -4z"/>
</g>
</svg>
